PathFileType	3	(X/Y/Z)	D:\minhoCalibration\240510\subject1_KPNP\preferred\preferred03.trc
DataRate	CameraRate	NumFrames	NumMarkers	Units	OrigDataRate	OrigDataStartFrame	OrigNumFrames
200.0	200.0	21	10	mm	200.0	283	196	
Frame#	Time	Left_Ankle_Outer1			Left_Ankle_Inner1			Left_Knee_Outer1			Left_Knee_Inner1			Left_Wrist1			Right_Wrist1			Right_Knee_Inner1			Right_Knee_Outer1			Right_Ankle_Inner1			Right_Ankle_Outer1			
		X1	Y1	Z1	X2	Y2	Z2	X3	Y3	Z3	X4	Y4	Z4	X5	Y5	Z5	X6	Y6	Z6	X7	Y7	Z7	X8	Y8	Z8	X9	Y9	Z9	X10	Y10	Z10	
283	1.405	-526.2113	150.18869	-538.71594	-556.43182	163.72748	-490.99133	-335.88257	561.75079	-490.32565	-421.91827	552.7359	-423.55109	-409.26633	992.9679	-734.16772	-550.40717	1193.0244	-471.31442	-287.7998	1013.1968	-141.04225	-322.85831	1109.2734	-143.92619	-399.3764	1026.5426	308.12698	-423.79681	1118.3915	315.50208
284	1.41	-527.98126	149.69873	-537.68671	-558.25421	163.04169	-490.09918	-337.20752	561.11804	-486.77365	-425.17282	552.72339	-418.83218	-407.57214	992.76642	-730.6178	-552.47876	1192.7889	-470.30945	-296.60757	1012.515	-136.23201	-331.98737	1109.3503	-139.58389	-345.18332	1037.6154	320.62381	-366.72006	1131.9456	328.3757
285	1.415	-529.57837	149.2663	-536.94824	-560.12323	162.49696	-489.48318	-338.91803	560.31476	-483.15887	-427.16217	552.16589	-416.33005	-405.61258	992.8468	-726.51953	-554.74622	1192.3822	-468.40363	-305.90524	1010.9883	-130.95894	-340.64313	1110.5873	-134.13515	-312.81964	1050.0077	319.73196	-323.30603	1143.2424	331.24432
286	1.42	-531.31384	148.79811	-536.05121	-561.52399	161.72787	-488.57523	-339.54492	559.59473	-480.16376	-428.42676	551.23334	-413.71829	-403.40225	993.25317	-721.70154	-557.18939	1192.1049	-465.41638	-313.48169	1008.4827	-126.04977	-348.26526	1115.2852	-126.87483	-308.71347	1057.4352	320.31131	-309.92212	1151.3202	324.0166
287	1.425	-532.66211	148.48108	-535.75128	-562.8656	161.12329	-487.89197	-339.84827	558.78851	-477.1087	-429.03339	550.27637	-410.5881	-400.96231	993.86383	-716.2063	-559.53461	1192.2296	-461.90372	-315.1983	1004.9635	-121.68917	-350.30478	1122.4717	-121.84156	-316.19531	1064.1024	326.15082	-306.26416	1157.5441	321.09775
288	1.43	-533.50543	148.31885	-535.40662	-563.73181	160.72565	-487.37537	-339.83331	557.82812	-474.02646	-428.6864	548.9975	-406.93915	-398.55023	994.29376	-710.14758	-561.80066	1192.8729	-457.99274	-310.71817	1006.2513	-115.77866	-342.97629	1126.8069	-119.78677	-321.40631	1066.9377	328.71719	-309.76605	1161.9541	323.19656
289	1.435	-533.71356	148.38136	-535.14203	-563.88947	160.53236	-487.10318	-339.73489	556.9425	-470.63443	-427.91644	547.15131	-403.18271	-396.27585	994.54022	-703.63251	-564.23578	1194.1807	-453.95044	-304.60675	1014.6019	-112.54102	-331.5376	1127.9816	-119.12265	-321.84991	1060.4727	328.98633	-321.72964	1157.9088	329.94556
290	1.44	-532.98114	148.58163	-534.9787	-563.51862	160.50414	-487.03928	-339.62527	556.25641	-466.74692	-426.37701	545.56146	-398.96567	-394.37756	994.31586	-696.97137	-567.32977	1196.1589	-448.97858	-299.34958	1021.5483	-113.07	-321.8887	1127.4668	-119.40285	-322.39496	1053.3607	327.93188	-335.83823	1148.2217	337.24588
291	1.445	-531.25482	149.01967	-534.93439	-562.48065	160.64331	-487.08701	-339.62823	555.89423	-462.48291	-424.5491	543.70569	-395.33276	-392.86902	993.66547	-690.26575	-570.26471	1197.736	-445.87906	-294.64078	1026.9772	-115.71844	-318.7757	1129.0192	-121.01747	-326.70514	1046.3152	324.88214	-346.48535	1137.0747	342.93011
292	1.45	-529.3999	149.34399	-534.46088	-561.23779	160.77463	-487.52234	-339.72818	556.24463	-457.57727	-422.75183	542.979	-391.21622	-391.59814	992.78223	-683.72498	-573.22009	1199.3931	-443.19424	-291.44528	1031.929	-117.71897	-319.9816	1131.3123	-120.34137	-333.13388	1038.8835	323.31552	-354.09814	1127.2543	346.2153
293	1.455	-526.74329	150.01109	-534.73486	-559.65167	161.05887	-487.96661	-339.90723	557.05902	-452.43375	-422.23187	542.12213	-388.0491	-390.539	991.79742	-677.39093	-576.12103	1200.7832	-440.97897	-291.13974	1034.8525	-116.625	-320.91092	1134.0579	-118.01429	-340.35043	1031.7576	323.78964	-361.57993	1119.4044	346.84763
294	1.46	-524.11237	150.56291	-534.66461	-558.09955	161.52078	-488.59317	-339.9165	558.28583	-447.09601	-423.1015	542.67407	-384.20325	-389.60818	990.99829	-671.34961	-579.15503	1201.8916	-439.06128	-287.332	1037.674	-118.44333	-322.36218	1136.5111	-117.12542	-349.75467	1022.5306	324.35992	-370.17123	1112.1279	346.11407
295	1.465	-521.54114	151.13866	-534.28888	-556.32117	162.11879	-489.16791	-339.88104	559.51843	-441.82211	-424.8447	543.54321	-380.68375	-388.73602	990.38977	-665.68872	-582.36279	1202.5302	-437.71927	-284.45251	1040.5778	-120.39436	-325.15192	1137.7404	-117.39897	-356.68497	1012.1801	323.47128	-379.19296	1102.6488	344.5498
296	1.47	-518.71362	152.23604	-534.29999	-554.13672	162.67766	-489.42709	-340.15134	560.54077	-436.55359	-427.05801	544.55591	-377.50031	-388.03067	989.8551	-660.38922	-585.53595	1202.8584	-435.89325	-280.23587	1044.5571	-123.71291	-328.97229	1138.885	-115.77238	-364.047	999.07135	322.25162	-387.88638	1090.2074	342.98431
297	1.475	-516.03241	153.27951	-533.89771	-552.21161	163.467	-489.74805	-340.08865	561.82269	-431.47015	-429.37155	545.56305	-374.64407	-387.37021	989.53906	-655.30981	-588.72571	1202.6281	-434.19272	-276.40839	1048.6443	-126.60463	-333.66721	1139.0814	-111.75481	-370.0621	985.48798	319.45892	-395.8501	1075.3667	341.73389
298	1.48	-513.39349	154.40019	-533.4942	-550.55823	164.47543	-489.81744	-340.46222	563.03943	-426.55658	-431.60986	546.65851	-371.95267	-386.73154	989.40295	-650.29388	-591.8139	1202.0249	-432.18216	-272.42142	1052.1892	-127.11422	-338.15067	1137.9946	-107.3427	-376.95169	972.04645	316.5488	-404.79907	1059.4346	340.80899
299	1.485	-511.0386	155.51558	-532.82031	-548.81934	165.32536	-489.68347	-340.90494	564.29364	-421.96973	-434.05191	548.02325	-368.66516	-386.12653	989.63965	-645.50397	-594.63776	1201.019	-429.96613	-268.96536	1053.3547	-124.74377	-341.69629	1135.739	-103.3932	-382.20935	957.84637	313.18759	-414.50558	1043.1156	339.77151
300	1.49	-509.00256	156.40762	-532.08557	-547.27533	166.09428	-489.4574	-341.58582	565.55994	-417.69568	-435.42596	548.90839	-367.01672	-385.53543	990.29205	-640.84381	-597.71698	1199.7035	-427.33746	-270.49384	1050.7715	-119.58822	-345.134	1132.4548	-99.408371	-387.81158	942.63953	309.61035	-424.22519	1025.7225	337.87561
301	1.495	-507.27808	157.45332	-531.3576	-545.80048	166.80807	-489.43741	-342.04086	566.91571	-413.84442	-437.13235	550.47205	-363.77603	-384.63934	991.4469	-636.66187	-600.86194	1198.1597	-424.82806	-271.18723	1047.2717	-117.20434	-348.32706	1128.1736	-95.106636	-391.75027	925.34796	305.80029	-433.6377	1007.6812	335.8692
302	1.5	-505.93256	158.44873	-530.64594	-544.66077	167.42113	-488.96188	-342.50955	568.14575	-410.44791	-438.47076	551.06433	-361.97751	-383.51215	992.87677	-633.01672	-604.11145	1196.4081	-422.43454	-272.69196	1042.8364	-114.83383	-350.73373	1123.1376	-90.426605	-397.18616	908.70135	302.00024	-442.04147	988.67847	333.97281
303	1.505	-504.82565	159.35725	-530.00378	-544.01044	168.28632	-488.61093	-342.98798	569.16309	-407.56882	-439.36963	551.81268	-360.36407	-382.04666	994.76111	-629.58203	-607.5094	1194.4609	-420.12592	-274.79199	1037.2875	-112.48989	-352.08899	1117.6497	-85.678528	-401.97882	891.52637	297.74536	-449.68491	969.24359	331.75168
